ffmpeg started on 2025-05-29 at 16:47:38
Report written to "D:\Convert\FFMetrics\reports\psnr_report-6.txt"
Log level: 32
Command line:
ffmpeg -hide_banner -nostdin -i "G:\\\xc0\xed\xe8\xec\xe5\\\xce\xed\xe3\xee\xe8\xed\xe3\xe8\\!_36_\xce\xf1\xe5\xed\xfc_2024\\JamClub\\\xd5\xe0\xed\xe0\xea\xee, \xef\xf0\xe8\xe7\xf0\xe0\xea \xf1 \xe2\xed\xe5\xea\xeb\xe0\xf1\xf1\xed\xfb\xec\xe8 \xe8\xf1\xf2\xee\xf0\xe8\xff\xec\xe8 [\xd2\xc2-2]\\JamClub_Houkago_Shounen_Hanako_kun_Zoku_hen_04_1080p_HEVC.mkv" -i "G:\\\xc0\xed\xe8\xec\xe5\\\xce\xed\xe3\xee\xe8\xed\xe3\xe8\\!_36_\xce\xf1\xe5\xed\xfc_2024\\JamClub\\\xd5\xe0\xed\xe0\xea\xee, \xef\xf0\xe8\xe7\xf0\xe0\xea \xf1 \xe2\xed\xe5\xea\xeb\xe0\xf1\xf1\xed\xfb\xec\xe8 \xe8\xf1\xf2\xee\xf0\xe8\xff\xec\xe8 [\xd2\xc2-2]\\JamClub_Houkago_Shounen_Hanako_kun_Zoku_hen_04_1080p.mp4" -lavfi "[0:v]settb=AVTB,setpts=PTS-STARTPTS,format=pix_fmts=yuv420p10,fps=24000/1001,scale=1920:1080:flags=bicubic[main];[1:v]settb=AVTB,setpts=PTS-STARTPTS,format=pix_fmts=yuv420p,fps=24000/1001,scale=1920:1080:flags=bicubic[ref];[main][ref]psnr=eof_action=endall:stats_file='D\\:/Convert/FFMetrics/logs/psnr_logfile-6.txt'" -f null -
Input #0, matroska,webm, from 'G:\Аниме\Онгоинги\!_36_Осень_2024\JamClub\Ханако, призрак с внеклассными историями [ТВ-2]\JamClub_Houkago_Shounen_Hanako_kun_Zoku_hen_04_1080p_HEVC.mkv':
  Metadata:
    COMPATIBLE_BRANDS: isomiso2avc1mp41
    MAJOR_BRAND     : isom
    MINOR_VERSION   : 512
    ENCODER         : Lavf61.7.100
  Duration: 00:10:24.60, start: -0.001000, bitrate: 1345 kb/s
  Stream #0:0: Video: hevc (Main 10), yuv420p10le(tv, bt709, progressive), 1920x1080 [SAR 1:1 DAR 16:9], 23.98 fps, 23.98 tbr, 1k tbn (default)
      Metadata:
        HANDLER_NAME    : VideoHandler
        VENDOR_ID       : [0][0][0][0]
        ENCODER         : Lavc61.19.100 libx265
        BPS             : 1152816
        DURATION        : 00:10:22.204708333
        NUMBER_OF_FRAMES: 14918
        NUMBER_OF_BYTES : 89660854
        _STATISTICS_WRITING_APP: mkvpropedit v66.0.0 ('Josie') 64-bit
        _STATISTICS_WRITING_DATE_UTC: 2025-05-29 12:03:41
        _STATISTICS_TAGS: BPS DURATION NUMBER_OF_FRAMES NUMBER_OF_BYTES
  Stream #0:1(eng): Audio: aac (LC), 48000 Hz, stereo, fltp (default)
      Metadata:
        HANDLER_NAME    : SoundHandler
        VENDOR_ID       : [0][0][0][0]
        ENCODER         : Lavc61.19.100 aac
        BPS             : 193215
        DURATION        : 00:10:24.557000000
        NUMBER_OF_FRAMES: 29277
        NUMBER_OF_BYTES : 15084229
        _STATISTICS_WRITING_APP: mkvpropedit v66.0.0 ('Josie') 64-bit
        _STATISTICS_WRITING_DATE_UTC: 2025-05-29 12:03:41
        _STATISTICS_TAGS: BPS DURATION NUMBER_OF_FRAMES NUMBER_OF_BYTES
Input #1, mov,mp4,m4a,3gp,3g2,mj2, from 'G:\Аниме\Онгоинги\!_36_Осень_2024\JamClub\Ханако, призрак с внеклассными историями [ТВ-2]\JamClub_Houkago_Shounen_Hanako_kun_Zoku_hen_04_1080p.mp4':
  Metadata:
    major_brand     : isom
    minor_version   : 512
    compatible_brands: isomiso2avc1mp41
    encoder         : Lavf60.16.100
  Duration: 00:10:24.58, start: 0.000000, bitrate: 4371 kb/s
  Stream #1:0[0x1](und): Video: h264 (High) (avc1 / 0x31637661), yuv420p(progressive), 1920x1080 [SAR 1:1 DAR 16:9], 4189 kb/s, 23.98 fps, 23.98 tbr, 90k tbn (default)
      Metadata:
        handler_name    : VideoHandler
        vendor_id       : [0][0][0][0]
  Stream #1:1[0x2](eng): Audio: aac (LC) (mp4a / 0x6134706D), 48000 Hz, stereo, fltp, 191 kb/s (default)
      Metadata:
        handler_name    : SoundHandler
        vendor_id       : [0][0][0][0]
Stream mapping:
  Stream #0:0 (hevc) -> settb:default
  Stream #1:0 (h264) -> settb:default
  psnr:default -> Stream #0:0 (wrapped_avframe)
  Stream #0:1 -> #0:1 (aac (native) -> pcm_s16le (native))
Output #0, null, to 'pipe:':
  Metadata:
    COMPATIBLE_BRANDS: isomiso2avc1mp41
    MAJOR_BRAND     : isom
    MINOR_VERSION   : 512
    encoder         : Lavf61.7.100
  Stream #0:0: Video: wrapped_avframe, yuv420p10le(tv, bt709, progressive), 1920x1080 [SAR 1:1 DAR 16:9], q=2-31, 200 kb/s, 23.98 fps, 23.98 tbn
      Metadata:
        encoder         : Lavc61.19.100 wrapped_avframe
  Stream #0:1(eng): Audio: pcm_s16le, 48000 Hz, stereo, s16, 1536 kb/s (default)
      Metadata:
        HANDLER_NAME    : SoundHandler
        VENDOR_ID       : [0][0][0][0]
        _STATISTICS_TAGS: BPS DURATION NUMBER_OF_FRAMES NUMBER_OF_BYTES
        BPS             : 193215
        DURATION        : 00:10:24.557000000
        NUMBER_OF_FRAMES: 29277
        NUMBER_OF_BYTES : 15084229
        _STATISTICS_WRITING_APP: mkvpropedit v66.0.0 ('Josie') 64-bit
        _STATISTICS_WRITING_DATE_UTC: 2025-05-29 12:03:41
        encoder         : Lavc61.19.100 pcm_s16le
frame=  109 fps=0.0 q=-0.0 size=N/A time=00:00:04.54 bitrate=N/A speed=8.94x    frame=  269 fps=261 q=-0.0 size=N/A time=00:00:11.21 bitrate=N/A speed=10.9x    frame=  463 fps=300 q=-0.0 size=N/A time=00:00:19.31 bitrate=N/A speed=12.5x    frame=  673 fps=327 q=-0.0 size=N/A time=00:00:28.06 bitrate=N/A speed=13.6x    frame=  932 fps=362 q=-0.0 size=N/A time=00:00:38.87 bitrate=N/A speed=15.1x    frame= 1136 fps=369 q=-0.0 size=N/A time=00:00:47.38 bitrate=N/A speed=15.4x    frame= 1358 fps=377 q=-0.0 size=N/A time=00:00:56.63 bitrate=N/A speed=15.7x    frame= 1600 fps=389 q=-0.0 size=N/A time=00:01:06.73 bitrate=N/A speed=16.2x    frame= 1840 fps=397 q=-0.0 size=N/A time=00:01:16.74 bitrate=N/A speed=16.6x    frame= 2028 fps=393 q=-0.0 size=N/A time=00:01:24.58 bitrate=N/A speed=16.4x    frame= 2277 fps=402 q=-0.0 size=N/A time=00:01:34.96 bitrate=N/A speed=16.8x    frame= 2490 fps=402 q=-0.0 size=N/A time=00:01:43.85 bitrate=N/A speed=16.8x    frame= 2726 fps=407 q=-0.0 size=N/A time=00:01:53.69 bitrate=N/A speed=  17x    frame= 2989 fps=414 q=-0.0 size=N/A time=00:02:04.66 bitrate=N/A speed=17.3x    frame= 3226 fps=418 q=-0.0 size=N/A time=00:02:14.55 bitrate=N/A speed=17.4x    frame= 3477 fps=422 q=-0.0 size=N/A time=00:02:25.01 bitrate=N/A speed=17.6x    frame= 3704 fps=423 q=-0.0 size=N/A time=00:02:34.48 bitrate=N/A speed=17.6x    frame= 3941 fps=425 q=-0.0 size=N/A time=00:02:44.37 bitrate=N/A speed=17.7x    frame= 4163 fps=425 q=-0.0 size=N/A time=00:02:53.63 bitrate=N/A speed=17.7x    frame= 4398 fps=427 q=-0.0 size=N/A time=00:03:03.43 bitrate=N/A speed=17.8x    frame= 4642 fps=429 q=-0.0 size=N/A time=00:03:13.61 bitrate=N/A speed=17.9x    frame= 4867 fps=429 q=-0.0 size=N/A time=00:03:22.99 bitrate=N/A speed=17.9x    frame= 5108 fps=431 q=-0.0 size=N/A time=00:03:33.04 bitrate=N/A speed=  18x    frame= 5342 fps=432 q=-0.0 size=N/A time=00:03:42.80 bitrate=N/A speed=  18x    frame= 5604 fps=435 q=-0.0 size=N/A time=00:03:53.73 bitrate=N/A speed=18.1x    frame= 5833 fps=435 q=-0.0 size=N/A time=00:04:03.28 bitrate=N/A speed=18.2x    frame= 6090 fps=438 q=-0.0 size=N/A time=00:04:14.00 bitrate=N/A speed=18.2x    frame= 6315 fps=438 q=-0.0 size=N/A time=00:04:23.38 bitrate=N/A speed=18.3x    frame= 6599 fps=441 q=-0.0 size=N/A time=00:04:35.23 bitrate=N/A speed=18.4x    frame= 6860 fps=444 q=-0.0 size=N/A time=00:04:46.11 bitrate=N/A speed=18.5x    frame= 7126 fps=446 q=-0.0 size=N/A time=00:04:57.21 bitrate=N/A speed=18.6x    frame= 7379 fps=447 q=-0.0 size=N/A time=00:05:07.76 bitrate=N/A speed=18.7x    frame= 7631 fps=449 q=-0.0 size=N/A time=00:05:18.27 bitrate=N/A speed=18.7x    frame= 7876 fps=449 q=-0.0 size=N/A time=00:05:28.49 bitrate=N/A speed=18.7x    frame= 8126 fps=450 q=-0.0 size=N/A time=00:05:38.92 bitrate=N/A speed=18.8x    frame= 8360 fps=450 q=-0.0 size=N/A time=00:05:48.68 bitrate=N/A speed=18.8x    frame= 8628 fps=452 q=-0.0 size=N/A time=00:05:59.85 bitrate=N/A speed=18.9x    frame= 8885 fps=454 q=-0.0 size=N/A time=00:06:10.57 bitrate=N/A speed=18.9x    frame= 9073 fps=451 q=-0.0 size=N/A time=00:06:18.41 bitrate=N/A speed=18.8x    frame= 9323 fps=452 q=-0.0 size=N/A time=00:06:28.84 bitrate=N/A speed=18.9x    frame= 9593 fps=454 q=-0.0 size=N/A time=00:06:40.10 bitrate=N/A speed=18.9x    frame= 9836 fps=454 q=-0.0 size=N/A time=00:06:50.24 bitrate=N/A speed=18.9x    frame=10101 fps=456 q=-0.0 size=N/A time=00:07:01.29 bitrate=N/A speed=  19x    frame=10329 fps=455 q=-0.0 size=N/A time=00:07:10.80 bitrate=N/A speed=  19x    frame=10571 fps=456 q=-0.0 size=N/A time=00:07:20.89 bitrate=N/A speed=  19x    frame=10840 fps=457 q=-0.0 size=N/A time=00:07:32.11 bitrate=N/A speed=19.1x    frame=11089 fps=458 q=-0.0 size=N/A time=00:07:42.50 bitrate=N/A speed=19.1x    frame=11341 fps=458 q=-0.0 size=N/A time=00:07:53.01 bitrate=N/A speed=19.1x    frame=11562 fps=458 q=-0.0 size=N/A time=00:08:02.23 bitrate=N/A speed=19.1x    frame=11816 fps=458 q=-0.0 size=N/A time=00:08:12.82 bitrate=N/A speed=19.1x    frame=12068 fps=459 q=-0.0 size=N/A time=00:08:23.33 bitrate=N/A speed=19.1x    frame=12316 fps=459 q=-0.0 size=N/A time=00:08:33.67 bitrate=N/A speed=19.2x    frame=12571 fps=460 q=-0.0 size=N/A time=00:08:44.31 bitrate=N/A speed=19.2x    frame=12825 fps=461 q=-0.0 size=N/A time=00:08:54.90 bitrate=N/A speed=19.2x    frame=13069 fps=461 q=-0.0 size=N/A time=00:09:05.08 bitrate=N/A speed=19.2x    frame=13273 fps=460 q=-0.0 size=N/A time=00:09:13.59 bitrate=N/A speed=19.2x    frame=13497 fps=459 q=-0.0 size=N/A time=00:09:22.93 bitrate=N/A speed=19.2x    frame=13697 fps=458 q=-0.0 size=N/A time=00:09:31.27 bitrate=N/A speed=19.1x    frame=13876 fps=456 q=-0.0 size=N/A time=00:09:38.74 bitrate=N/A speed=  19x    frame=14086 fps=456 q=-0.0 size=N/A time=00:09:47.50 bitrate=N/A speed=  19x    frame=14319 fps=455 q=-0.0 size=N/A time=00:09:57.22 bitrate=N/A speed=  19x    frame=14502 fps=454 q=-0.0 size=N/A time=00:10:04.85 bitrate=N/A speed=18.9x    frame=14723 fps=453 q=-0.0 size=N/A time=00:10:14.07 bitrate=N/A speed=18.9x    [Parsed_psnr_10 @ 000001e996bead80] PSNR y:48.106557 u:49.662903 v:48.876165 average:48.455776 min:37.154181 max:inf
[out#0/null @ 000001e991b940c0] video:6410KiB audio:117108KiB subtitle:0KiB other streams:0KiB global headers:0KiB muxing overhead: unknown
frame=14918 fps=454 q=-0.0 Lsize=N/A time=00:10:22.20 bitrate=N/A speed=18.9x    
